<svg xmlns="http://www.w3.org/2000/svg" width="52" height="33" viewBox="0 0 52 33">
  <defs>
    <style>
      .cls-1 {
        fill: #ee6e3c;
        fill-rule: evenodd;
      }
    </style>
  </defs>
  <path id="icon-people.svg" class="cls-1" d="M839.818,2968v-5.89a9.734,9.734,0,0,0-4.727-8.02,9.1,9.1,0,0,1,2.364-.23c5.436,0,16.545,2.83,16.545,8.25V2968H839.818Zm-2.363-18.86a7.07,7.07,0,1,1,7.09-7.07A6.951,6.951,0,0,1,837.455,2949.14Zm-18.91,0a7.07,7.07,0,1,1,7.091-7.07A6.951,6.951,0,0,1,818.545,2949.14Zm16.546,12.97V2968H802v-5.89c0-5.42,11.109-8.25,16.545-8.25S835.091,2956.69,835.091,2962.11Z" transform="translate(-802 -2935)"/>
</svg>
