<svg xmlns="http://www.w3.org/2000/svg" width="47.031" height="48" viewBox="0 0 47.031 48">
  <defs>
    <style>
      .cls-1 {
        fill: #fff;
        fill-rule: evenodd;
      }
    </style>
  </defs>
  <path id="icon-gear.svg" class="cls-1" d="M568.86,2962.84l-4.8,8.45a1.153,1.153,0,0,1-1.439.48l-6-2.41a22.828,22.828,0,0,1-4.076,2.41l-0.96,6.27a1.288,1.288,0,0,1-1.2.97H540.8a1.1,1.1,0,0,1-1.2-.97l-0.96-6.27a22.828,22.828,0,0,1-4.076-2.41l-6,2.41a1.344,1.344,0,0,1-1.439-.24l-4.8-8.44a1.145,1.145,0,0,1,.24-1.45l5.036-4.1a7.526,7.526,0,0,1-.24-2.42c0-.96.24-1.69,0.24-2.41l-5.036-3.86a1.341,1.341,0,0,1-.479-1.45l4.795-8.44a1.483,1.483,0,0,1,1.679-.48l5.755,2.41a17.777,17.777,0,0,1,4.077-2.41l0.959-6.52a1.291,1.291,0,0,1,1.2-.96h9.592a0.966,0.966,0,0,1,.959,1.2l0.959,6.28a22.223,22.223,0,0,1,4.077,2.41l5.994-2.41a1.343,1.343,0,0,1,1.439.24l4.8,8.44a1.144,1.144,0,0,1-.24,1.45l-5.035,4.1a7.492,7.492,0,0,1,.239,2.41c0,0.97-.239,1.69-0.239,2.42l5.515,3.86A1.086,1.086,0,0,1,568.86,2962.84Zm-23.5-16.16a8.445,8.445,0,1,0,8.393,8.44A8.522,8.522,0,0,0,545.36,2946.68Z" transform="translate(-522 -2931)"/>
</svg>
