<svg xmlns="http://www.w3.org/2000/svg" width="29" height="48" viewBox="0 0 29 48">
  <defs>
    <style>
      .cls-1 {
        fill: #fff;
        fill-rule: evenodd;
      }
    </style>
  </defs>
  <path id="icon-walk.svg" class="cls-1" d="M264.069,2951.57l-2.454-3.96-1.561,6.39,5.577,9.91V2978h-4.016v-11.01l-5.13-6.83-6.47,17.84H246l8.7-33.91-4.685,1.54v8.15H246v-11.45l12.046-3.75a2.035,2.035,0,0,1,1.116-.22,4.157,4.157,0,0,1,3.346,1.98l4.461,7.27H275v3.96H264.069Zm-0.223-13.65a3.965,3.965,0,1,1,4.016-3.96A3.971,3.971,0,0,1,263.846,2937.92Z" transform="translate(-246 -2930)"/>
</svg>
